<?xml version="1.0" standalone="no"?>
<!DOCTYPE svg PUBLIC "-//W3C//DTD SVG 20010904//EN"
 "http://www.w3.org/TR/2001/REC-SVG-20010904/DTD/svg10.dtd">
<svg version="1.0" xmlns="http://www.w3.org/2000/svg"
 width="500.000000pt" height="500.000000pt" viewBox="0 0 500.000000 500.000000"
 preserveAspectRatio="xMidYMid meet">

<g transform="translate(0.000000,500.000000) scale(0.100000,-0.100000)"
fill="#000000" stroke="none">
<path d="M0 2500 l0 -2500 2500 0 2500 0 0 2500 0 2500 -2500 0 -2500 0 0
-2500z m3545 1025 c285 -46 456 -191 472 -400 7 -95 -19 -182 -87 -290 -27
-43 -50 -85 -50 -91 0 -7 32 -47 72 -90 46 -51 84 -105 107 -154 34 -71 36
-81 36 -175 0 -94 -2 -105 -33 -168 -75 -151 -218 -244 -440 -282 -121 -21
-625 -31 -856 -16 -99 6 -181 13 -184 15 -2 3 -6 22 -9 45 l-5 40 68 44 c121
79 109 1 112 682 1 359 -1 602 -7 618 -7 19 -26 31 -75 48 l-66 24 0 56 c0 36
5 61 14 68 42 35 754 55 931 26z m-1261 -12 c99 -8 100 -10 99 -178 -1 -129
-26 -267 -54 -301 -13 -16 -144 -28 -184 -16 -31 9 -35 17 -89 164 -21 57 -43
66 -172 75 -129 8 -182 -1 -195 -35 -18 -46 -23 -214 -9 -287 19 -103 26 -105
278 -105 184 0 203 -2 210 -17 9 -24 9 -239 -1 -249 -4 -4 -96 -11 -205 -15
-229 -8 -257 -15 -273 -67 -25 -84 -18 -307 11 -336 31 -31 285 -22 344 12 22
13 41 43 76 122 l46 105 84 0 c121 0 137 -6 145 -55 10 -62 8 -268 -4 -329
-24 -118 -29 -128 -64 -135 -69 -14 -821 -19 -1042 -6 -121 6 -223 15 -227 18
-3 4 -8 23 -10 42 -3 34 0 37 77 87 54 36 84 63 93 83 10 24 12 162 10 626 -3
594 -3 596 -24 613 -12 10 -47 23 -78 30 l-56 12 0 65 c0 75 -4 72 130 77 180
6 1011 7 1084 0z m-142 -2021 c23 -48 25 -48 47 -4 l20 39 90 0 91 1 22 -36
c12 -20 23 -31 24 -26 1 5 5 20 8 34 5 25 9 26 75 28 42 2 72 -2 76 -8 4 -7
-2 -14 -14 -17 -18 -5 -21 -13 -21 -65 0 -51 -2 -59 -17 -56 -14 2 -19 15 -21
61 -3 49 -6 57 -22 57 -18 0 -20 -7 -20 -60 0 -53 -2 -60 -19 -60 -11 0 -28
13 -38 30 -22 38 -33 38 -33 -1 0 -24 -4 -30 -17 -27 -14 3 -19 15 -21 64 l-3
60 -34 -4 c-41 -5 -47 -29 -8 -34 36 -4 41 -26 7 -30 -37 -4 -42 -26 -8 -30
15 -2 29 -9 32 -15 2 -9 -11 -13 -47 -13 l-51 0 0 56 c0 65 -11 63 -36 -6 -25
-68 -48 -65 -78 10 -20 51 -25 55 -54 55 -37 0 -44 -17 -11 -25 33 -8 35 -28
3 -32 -37 -4 -42 -26 -8 -30 15 -2 29 -9 32 -16 3 -10 -8 -12 -44 -10 l-49 3
-3 59 c-4 86 -3 88 70 84 60 -3 64 -5 80 -36z m611 23 c13 -13 16 -13 21 1 12
31 31 6 36 -47 4 -46 8 -54 25 -54 17 0 20 8 23 50 4 60 17 78 38 51 12 -17
14 -18 14 -3 0 25 83 24 109 -2 18 -18 19 -18 35 1 20 23 74 21 90 -4 14 -23
0 -35 -24 -20 -24 14 -30 15 -30 3 0 -6 12 -16 28 -23 39 -19 44 -74 8 -88
-28 -10 -52 -5 -77 17 -14 11 -18 11 -29 -2 -8 -10 -30 -15 -61 -15 -43 0 -49
3 -49 21 0 20 -1 20 -31 -5 -37 -31 -49 -32 -82 -6 -22 17 -26 18 -37 5 -8 -9
-30 -15 -56 -15 l-44 0 0 68 c0 38 3 72 7 75 12 13 71 7 86 -8z"/>
<path d="M3290 3264 c-25 -9 -51 -21 -57 -28 -7 -6 -18 -48 -24 -92 -16 -113
1 -212 44 -255 30 -30 33 -31 98 -27 127 9 206 81 216 197 5 52 2 68 -21 116
-49 99 -136 130 -256 89z"/>
<path d="M3264 2571 c-43 -26 -55 -67 -61 -201 -7 -148 7 -225 45 -244 47 -23
148 -36 205 -26 183 35 249 269 113 404 -59 59 -107 80 -196 84 -61 2 -81 -1
-106 -17z"/>
<path d="M2695 1491 c-6 -11 9 -23 19 -14 9 9 7 23 -3 23 -6 0 -12 -4 -16 -9z"/>
<path d="M2947 1493 c-4 -3 -7 -24 -7 -45 0 -37 2 -39 28 -36 23 3 28 8 30 37
2 20 -2 37 -10 42 -16 10 -32 11 -41 2z"/>
<path d="M3045 1450 c-3 -5 4 -11 15 -15 11 -3 20 -11 20 -16 0 -5 7 -9 15 -9
8 0 15 4 15 9 0 13 -59 41 -65 31z"/>
<path d="M2695 1420 c3 -5 13 -10 21 -10 8 0 14 5 14 10 0 6 -9 10 -21 10 -11
0 -17 -4 -14 -10z"/>
</g>
</svg>
